<svg xmlns="http://www.w3.org/2000/svg" viewBox="0 0 640 640">
    <path d="M593.8 123.1H46.2C20.7 123.1 0 143.8 0 169.2V470.8C0 496.2 20.7 516.9 46.2 516.9H593.8C619.3 516.9 640 496.2 640 470.8V169.2C640 143.8 619.3 123.1 593.8 123.1zM338.5 424.6H277V304.6L215.5 381.5L154 304.6V424.6H92.3V215.4H153.8L215.3 292.3L276.8 215.4H338.3V424.6H338.5zM478.8 215.4C489.2 215.4 498.4 217.4 506.4 221.4C514.4 225.4 520.8 231.1 525.6 238.5C530.4 245.9 532.8 254.6 532.8 264.6C532.8 274.6 530.4 283.3 525.6 290.7C520.8 298.1 514.4 303.8 506.4 307.8C498.4 311.8 489.2 313.8 478.8 313.8H443V424.6H381.5V215.4H478.8ZM471.2 264.6C471.2 259.9 469.3 256.2 465.5 253.5C461.7 250.8 456.8 249.4 450.8 249.4H443V279.8H450.8C456.8 279.8 461.7 278.4 465.5 275.7C469.3 273 471.2 269.3 471.2 264.6z"/>
</svg>